<mxfile host="app.diagrams.net" modified="2023-11-27T02:29:44.995Z" agent="Mozilla/5.0 (Windows NT 10.0; Win64; x64) AppleWebKit/537.36 (KHTML, like Gecko) Chrome/118.0.0.0 Safari/537.36 OPR/104.0.0.0" etag="i1_BRhNKfODRwJHDbL0b" version="22.1.4" type="github">
  <diagram name="Page-1" id="5hkUQjWP-tCwx79AmypG">
    <mxGraphModel dx="3426" dy="2129" grid="0" gridSize="10" guides="1" tooltips="1" connect="1" arrows="1" fold="1" page="0" pageScale="1" pageWidth="850" pageHeight="1100" math="0" shadow="0">
      <root>
        <mxCell id="0" />
        <mxCell id="1" parent="0" />
        <mxCell id="cielFp2i9ixUdL_3kRZ_-1" value="Hotel" style="shape=table;startSize=30;container=1;collapsible=1;childLayout=tableLayout;fixedRows=1;rowLines=0;fontStyle=1;align=center;resizeLast=1;html=1;" vertex="1" parent="1">
          <mxGeometry x="-123" y="122" width="180" height="150" as="geometry" />
        </mxCell>
        <mxCell id="cielFp2i9ixUdL_3kRZ_-2" value="" style="shape=tableRow;horizontal=0;startSize=0;swimlaneHead=0;swimlaneBody=0;fillColor=none;collapsible=0;dropTarget=0;points=[[0,0.5],[1,0.5]];portConstraint=eastwest;top=0;left=0;right=0;bottom=1;" vertex="1" parent="cielFp2i9ixUdL_3kRZ_-1">
          <mxGeometry y="30" width="180" height="30" as="geometry" />
        </mxCell>
        <mxCell id="cielFp2i9ixUdL_3kRZ_-3" value="PK" style="shape=partialRectangle;connectable=0;fillColor=none;top=0;left=0;bottom=0;right=0;fontStyle=1;overflow=hidden;whiteSpace=wrap;html=1;" vertex="1" parent="cielFp2i9ixUdL_3kRZ_-2">
          <mxGeometry width="30" height="30" as="geometry">
            <mxRectangle width="30" height="30" as="alternateBounds" />
          </mxGeometry>
        </mxCell>
        <mxCell id="cielFp2i9ixUdL_3kRZ_-4" value="IdHotel" style="shape=partialRectangle;connectable=0;fillColor=none;top=0;left=0;bottom=0;right=0;align=left;spacingLeft=6;fontStyle=5;overflow=hidden;whiteSpace=wrap;html=1;" vertex="1" parent="cielFp2i9ixUdL_3kRZ_-2">
          <mxGeometry x="30" width="150" height="30" as="geometry">
            <mxRectangle width="150" height="30" as="alternateBounds" />
          </mxGeometry>
        </mxCell>
        <mxCell id="cielFp2i9ixUdL_3kRZ_-5" value="" style="shape=tableRow;horizontal=0;startSize=0;swimlaneHead=0;swimlaneBody=0;fillColor=none;collapsible=0;dropTarget=0;points=[[0,0.5],[1,0.5]];portConstraint=eastwest;top=0;left=0;right=0;bottom=0;" vertex="1" parent="cielFp2i9ixUdL_3kRZ_-1">
          <mxGeometry y="60" width="180" height="30" as="geometry" />
        </mxCell>
        <mxCell id="cielFp2i9ixUdL_3kRZ_-6" value="nn" style="shape=partialRectangle;connectable=0;fillColor=none;top=0;left=0;bottom=0;right=0;editable=1;overflow=hidden;whiteSpace=wrap;html=1;" vertex="1" parent="cielFp2i9ixUdL_3kRZ_-5">
          <mxGeometry width="30" height="30" as="geometry">
            <mxRectangle width="30" height="30" as="alternateBounds" />
          </mxGeometry>
        </mxCell>
        <mxCell id="cielFp2i9ixUdL_3kRZ_-7" value="Nombre" style="shape=partialRectangle;connectable=0;fillColor=none;top=0;left=0;bottom=0;right=0;align=left;spacingLeft=6;overflow=hidden;whiteSpace=wrap;html=1;" vertex="1" parent="cielFp2i9ixUdL_3kRZ_-5">
          <mxGeometry x="30" width="150" height="30" as="geometry">
            <mxRectangle width="150" height="30" as="alternateBounds" />
          </mxGeometry>
        </mxCell>
        <mxCell id="cielFp2i9ixUdL_3kRZ_-8" value="" style="shape=tableRow;horizontal=0;startSize=0;swimlaneHead=0;swimlaneBody=0;fillColor=none;collapsible=0;dropTarget=0;points=[[0,0.5],[1,0.5]];portConstraint=eastwest;top=0;left=0;right=0;bottom=0;" vertex="1" parent="cielFp2i9ixUdL_3kRZ_-1">
          <mxGeometry y="90" width="180" height="30" as="geometry" />
        </mxCell>
        <mxCell id="cielFp2i9ixUdL_3kRZ_-9" value="nn" style="shape=partialRectangle;connectable=0;fillColor=none;top=0;left=0;bottom=0;right=0;editable=1;overflow=hidden;whiteSpace=wrap;html=1;" vertex="1" parent="cielFp2i9ixUdL_3kRZ_-8">
          <mxGeometry width="30" height="30" as="geometry">
            <mxRectangle width="30" height="30" as="alternateBounds" />
          </mxGeometry>
        </mxCell>
        <mxCell id="cielFp2i9ixUdL_3kRZ_-10" value="Direccion" style="shape=partialRectangle;connectable=0;fillColor=none;top=0;left=0;bottom=0;right=0;align=left;spacingLeft=6;overflow=hidden;whiteSpace=wrap;html=1;" vertex="1" parent="cielFp2i9ixUdL_3kRZ_-8">
          <mxGeometry x="30" width="150" height="30" as="geometry">
            <mxRectangle width="150" height="30" as="alternateBounds" />
          </mxGeometry>
        </mxCell>
        <mxCell id="cielFp2i9ixUdL_3kRZ_-11" value="" style="shape=tableRow;horizontal=0;startSize=0;swimlaneHead=0;swimlaneBody=0;fillColor=none;collapsible=0;dropTarget=0;points=[[0,0.5],[1,0.5]];portConstraint=eastwest;top=0;left=0;right=0;bottom=0;" vertex="1" parent="cielFp2i9ixUdL_3kRZ_-1">
          <mxGeometry y="120" width="180" height="30" as="geometry" />
        </mxCell>
        <mxCell id="cielFp2i9ixUdL_3kRZ_-12" value="nn" style="shape=partialRectangle;connectable=0;fillColor=none;top=0;left=0;bottom=0;right=0;editable=1;overflow=hidden;whiteSpace=wrap;html=1;" vertex="1" parent="cielFp2i9ixUdL_3kRZ_-11">
          <mxGeometry width="30" height="30" as="geometry">
            <mxRectangle width="30" height="30" as="alternateBounds" />
          </mxGeometry>
        </mxCell>
        <mxCell id="cielFp2i9ixUdL_3kRZ_-13" value="Estrellas" style="shape=partialRectangle;connectable=0;fillColor=none;top=0;left=0;bottom=0;right=0;align=left;spacingLeft=6;overflow=hidden;whiteSpace=wrap;html=1;" vertex="1" parent="cielFp2i9ixUdL_3kRZ_-11">
          <mxGeometry x="30" width="150" height="30" as="geometry">
            <mxRectangle width="150" height="30" as="alternateBounds" />
          </mxGeometry>
        </mxCell>
        <mxCell id="cielFp2i9ixUdL_3kRZ_-14" value="Turista" style="shape=table;startSize=30;container=1;collapsible=1;childLayout=tableLayout;fixedRows=1;rowLines=0;fontStyle=1;align=center;resizeLast=1;html=1;" vertex="1" parent="1">
          <mxGeometry x="491" y="122" width="180" height="210" as="geometry" />
        </mxCell>
        <mxCell id="cielFp2i9ixUdL_3kRZ_-15" value="" style="shape=tableRow;horizontal=0;startSize=0;swimlaneHead=0;swimlaneBody=0;fillColor=none;collapsible=0;dropTarget=0;points=[[0,0.5],[1,0.5]];portConstraint=eastwest;top=0;left=0;right=0;bottom=1;" vertex="1" parent="cielFp2i9ixUdL_3kRZ_-14">
          <mxGeometry y="30" width="180" height="30" as="geometry" />
        </mxCell>
        <mxCell id="cielFp2i9ixUdL_3kRZ_-16" value="PK" style="shape=partialRectangle;connectable=0;fillColor=none;top=0;left=0;bottom=0;right=0;fontStyle=1;overflow=hidden;whiteSpace=wrap;html=1;" vertex="1" parent="cielFp2i9ixUdL_3kRZ_-15">
          <mxGeometry width="42.55110168457031" height="30" as="geometry">
            <mxRectangle width="42.55110168457031" height="30" as="alternateBounds" />
          </mxGeometry>
        </mxCell>
        <mxCell id="cielFp2i9ixUdL_3kRZ_-17" value="Id" style="shape=partialRectangle;connectable=0;fillColor=none;top=0;left=0;bottom=0;right=0;align=left;spacingLeft=6;fontStyle=5;overflow=hidden;whiteSpace=wrap;html=1;" vertex="1" parent="cielFp2i9ixUdL_3kRZ_-15">
          <mxGeometry x="42.55110168457031" width="137.4488983154297" height="30" as="geometry">
            <mxRectangle width="137.4488983154297" height="30" as="alternateBounds" />
          </mxGeometry>
        </mxCell>
        <mxCell id="cielFp2i9ixUdL_3kRZ_-18" value="" style="shape=tableRow;horizontal=0;startSize=0;swimlaneHead=0;swimlaneBody=0;fillColor=none;collapsible=0;dropTarget=0;points=[[0,0.5],[1,0.5]];portConstraint=eastwest;top=0;left=0;right=0;bottom=0;" vertex="1" parent="cielFp2i9ixUdL_3kRZ_-14">
          <mxGeometry y="60" width="180" height="30" as="geometry" />
        </mxCell>
        <mxCell id="cielFp2i9ixUdL_3kRZ_-19" value="uk, nn" style="shape=partialRectangle;connectable=0;fillColor=none;top=0;left=0;bottom=0;right=0;editable=1;overflow=hidden;whiteSpace=wrap;html=1;" vertex="1" parent="cielFp2i9ixUdL_3kRZ_-18">
          <mxGeometry width="42.55110168457031" height="30" as="geometry">
            <mxRectangle width="42.55110168457031" height="30" as="alternateBounds" />
          </mxGeometry>
        </mxCell>
        <mxCell id="cielFp2i9ixUdL_3kRZ_-20" value="DNI" style="shape=partialRectangle;connectable=0;fillColor=none;top=0;left=0;bottom=0;right=0;align=left;spacingLeft=6;overflow=hidden;whiteSpace=wrap;html=1;" vertex="1" parent="cielFp2i9ixUdL_3kRZ_-18">
          <mxGeometry x="42.55110168457031" width="137.4488983154297" height="30" as="geometry">
            <mxRectangle width="137.4488983154297" height="30" as="alternateBounds" />
          </mxGeometry>
        </mxCell>
        <mxCell id="cielFp2i9ixUdL_3kRZ_-21" value="" style="shape=tableRow;horizontal=0;startSize=0;swimlaneHead=0;swimlaneBody=0;fillColor=none;collapsible=0;dropTarget=0;points=[[0,0.5],[1,0.5]];portConstraint=eastwest;top=0;left=0;right=0;bottom=0;" vertex="1" parent="cielFp2i9ixUdL_3kRZ_-14">
          <mxGeometry y="90" width="180" height="30" as="geometry" />
        </mxCell>
        <mxCell id="cielFp2i9ixUdL_3kRZ_-22" value="nn" style="shape=partialRectangle;connectable=0;fillColor=none;top=0;left=0;bottom=0;right=0;editable=1;overflow=hidden;whiteSpace=wrap;html=1;" vertex="1" parent="cielFp2i9ixUdL_3kRZ_-21">
          <mxGeometry width="42.55110168457031" height="30" as="geometry">
            <mxRectangle width="42.55110168457031" height="30" as="alternateBounds" />
          </mxGeometry>
        </mxCell>
        <mxCell id="cielFp2i9ixUdL_3kRZ_-23" value="Domicilio" style="shape=partialRectangle;connectable=0;fillColor=none;top=0;left=0;bottom=0;right=0;align=left;spacingLeft=6;overflow=hidden;whiteSpace=wrap;html=1;" vertex="1" parent="cielFp2i9ixUdL_3kRZ_-21">
          <mxGeometry x="42.55110168457031" width="137.4488983154297" height="30" as="geometry">
            <mxRectangle width="137.4488983154297" height="30" as="alternateBounds" />
          </mxGeometry>
        </mxCell>
        <mxCell id="cielFp2i9ixUdL_3kRZ_-24" value="" style="shape=tableRow;horizontal=0;startSize=0;swimlaneHead=0;swimlaneBody=0;fillColor=none;collapsible=0;dropTarget=0;points=[[0,0.5],[1,0.5]];portConstraint=eastwest;top=0;left=0;right=0;bottom=0;" vertex="1" parent="cielFp2i9ixUdL_3kRZ_-14">
          <mxGeometry y="120" width="180" height="30" as="geometry" />
        </mxCell>
        <mxCell id="cielFp2i9ixUdL_3kRZ_-25" value="nn" style="shape=partialRectangle;connectable=0;fillColor=none;top=0;left=0;bottom=0;right=0;editable=1;overflow=hidden;whiteSpace=wrap;html=1;" vertex="1" parent="cielFp2i9ixUdL_3kRZ_-24">
          <mxGeometry width="42.55110168457031" height="30" as="geometry">
            <mxRectangle width="42.55110168457031" height="30" as="alternateBounds" />
          </mxGeometry>
        </mxCell>
        <mxCell id="cielFp2i9ixUdL_3kRZ_-26" value="Nacionalidad" style="shape=partialRectangle;connectable=0;fillColor=none;top=0;left=0;bottom=0;right=0;align=left;spacingLeft=6;overflow=hidden;whiteSpace=wrap;html=1;" vertex="1" parent="cielFp2i9ixUdL_3kRZ_-24">
          <mxGeometry x="42.55110168457031" width="137.4488983154297" height="30" as="geometry">
            <mxRectangle width="137.4488983154297" height="30" as="alternateBounds" />
          </mxGeometry>
        </mxCell>
        <mxCell id="cielFp2i9ixUdL_3kRZ_-27" value="" style="shape=tableRow;horizontal=0;startSize=0;swimlaneHead=0;swimlaneBody=0;fillColor=none;collapsible=0;dropTarget=0;points=[[0,0.5],[1,0.5]];portConstraint=eastwest;top=0;left=0;right=0;bottom=0;" vertex="1" parent="cielFp2i9ixUdL_3kRZ_-14">
          <mxGeometry y="150" width="180" height="30" as="geometry" />
        </mxCell>
        <mxCell id="cielFp2i9ixUdL_3kRZ_-28" value="nn" style="shape=partialRectangle;connectable=0;fillColor=none;top=0;left=0;bottom=0;right=0;editable=1;overflow=hidden;whiteSpace=wrap;html=1;" vertex="1" parent="cielFp2i9ixUdL_3kRZ_-27">
          <mxGeometry width="42.55110168457031" height="30" as="geometry">
            <mxRectangle width="42.55110168457031" height="30" as="alternateBounds" />
          </mxGeometry>
        </mxCell>
        <mxCell id="cielFp2i9ixUdL_3kRZ_-29" value="Nombre" style="shape=partialRectangle;connectable=0;fillColor=none;top=0;left=0;bottom=0;right=0;align=left;spacingLeft=6;overflow=hidden;whiteSpace=wrap;html=1;" vertex="1" parent="cielFp2i9ixUdL_3kRZ_-27">
          <mxGeometry x="42.55110168457031" width="137.4488983154297" height="30" as="geometry">
            <mxRectangle width="137.4488983154297" height="30" as="alternateBounds" />
          </mxGeometry>
        </mxCell>
        <mxCell id="cielFp2i9ixUdL_3kRZ_-30" value="" style="shape=tableRow;horizontal=0;startSize=0;swimlaneHead=0;swimlaneBody=0;fillColor=none;collapsible=0;dropTarget=0;points=[[0,0.5],[1,0.5]];portConstraint=eastwest;top=0;left=0;right=0;bottom=0;" vertex="1" parent="cielFp2i9ixUdL_3kRZ_-14">
          <mxGeometry y="180" width="180" height="30" as="geometry" />
        </mxCell>
        <mxCell id="cielFp2i9ixUdL_3kRZ_-31" value="fk" style="shape=partialRectangle;connectable=0;fillColor=none;top=0;left=0;bottom=0;right=0;editable=1;overflow=hidden;whiteSpace=wrap;html=1;" vertex="1" parent="cielFp2i9ixUdL_3kRZ_-30">
          <mxGeometry width="42.55110168457031" height="30" as="geometry">
            <mxRectangle width="42.55110168457031" height="30" as="alternateBounds" />
          </mxGeometry>
        </mxCell>
        <mxCell id="cielFp2i9ixUdL_3kRZ_-32" value="IdInvitado" style="shape=partialRectangle;connectable=0;fillColor=none;top=0;left=0;bottom=0;right=0;align=left;spacingLeft=6;overflow=hidden;whiteSpace=wrap;html=1;" vertex="1" parent="cielFp2i9ixUdL_3kRZ_-30">
          <mxGeometry x="42.55110168457031" width="137.4488983154297" height="30" as="geometry">
            <mxRectangle width="137.4488983154297" height="30" as="alternateBounds" />
          </mxGeometry>
        </mxCell>
        <mxCell id="cielFp2i9ixUdL_3kRZ_-33" value="" style="edgeStyle=entityRelationEdgeStyle;fontSize=12;html=1;endArrow=ERzeroToOne;startArrow=ERmandOne;rounded=0;exitX=1;exitY=0.7;exitDx=0;exitDy=0;exitPerimeter=0;" edge="1" parent="cielFp2i9ixUdL_3kRZ_-14" source="cielFp2i9ixUdL_3kRZ_-15" target="cielFp2i9ixUdL_3kRZ_-30">
          <mxGeometry width="100" height="100" relative="1" as="geometry">
            <mxPoint x="66" y="346" as="sourcePoint" />
            <mxPoint x="166" y="246" as="targetPoint" />
          </mxGeometry>
        </mxCell>
        <mxCell id="cielFp2i9ixUdL_3kRZ_-34" value="Hospedaje" style="shape=table;startSize=30;container=1;collapsible=1;childLayout=tableLayout;fixedRows=1;rowLines=0;fontStyle=1;align=center;resizeLast=1;html=1;whiteSpace=wrap;" vertex="1" parent="1">
          <mxGeometry x="199" y="127" width="180" height="90" as="geometry" />
        </mxCell>
        <mxCell id="cielFp2i9ixUdL_3kRZ_-35" value="" style="shape=tableRow;horizontal=0;startSize=0;swimlaneHead=0;swimlaneBody=0;fillColor=none;collapsible=0;dropTarget=0;points=[[0,0.5],[1,0.5]];portConstraint=eastwest;top=0;left=0;right=0;bottom=0;html=1;" vertex="1" parent="cielFp2i9ixUdL_3kRZ_-34">
          <mxGeometry y="30" width="180" height="30" as="geometry" />
        </mxCell>
        <mxCell id="cielFp2i9ixUdL_3kRZ_-36" value="PK,FK1" style="shape=partialRectangle;connectable=0;fillColor=none;top=0;left=0;bottom=0;right=0;fontStyle=1;overflow=hidden;html=1;whiteSpace=wrap;" vertex="1" parent="cielFp2i9ixUdL_3kRZ_-35">
          <mxGeometry width="60" height="30" as="geometry">
            <mxRectangle width="60" height="30" as="alternateBounds" />
          </mxGeometry>
        </mxCell>
        <mxCell id="cielFp2i9ixUdL_3kRZ_-37" value="IdTurista" style="shape=partialRectangle;connectable=0;fillColor=none;top=0;left=0;bottom=0;right=0;align=left;spacingLeft=6;fontStyle=5;overflow=hidden;html=1;whiteSpace=wrap;" vertex="1" parent="cielFp2i9ixUdL_3kRZ_-35">
          <mxGeometry x="60" width="120" height="30" as="geometry">
            <mxRectangle width="120" height="30" as="alternateBounds" />
          </mxGeometry>
        </mxCell>
        <mxCell id="cielFp2i9ixUdL_3kRZ_-38" value="" style="shape=tableRow;horizontal=0;startSize=0;swimlaneHead=0;swimlaneBody=0;fillColor=none;collapsible=0;dropTarget=0;points=[[0,0.5],[1,0.5]];portConstraint=eastwest;top=0;left=0;right=0;bottom=1;html=1;" vertex="1" parent="cielFp2i9ixUdL_3kRZ_-34">
          <mxGeometry y="60" width="180" height="30" as="geometry" />
        </mxCell>
        <mxCell id="cielFp2i9ixUdL_3kRZ_-39" value="PK,FK2" style="shape=partialRectangle;connectable=0;fillColor=none;top=0;left=0;bottom=0;right=0;fontStyle=1;overflow=hidden;html=1;whiteSpace=wrap;" vertex="1" parent="cielFp2i9ixUdL_3kRZ_-38">
          <mxGeometry width="60" height="30" as="geometry">
            <mxRectangle width="60" height="30" as="alternateBounds" />
          </mxGeometry>
        </mxCell>
        <mxCell id="cielFp2i9ixUdL_3kRZ_-40" value="IdHotel" style="shape=partialRectangle;connectable=0;fillColor=none;top=0;left=0;bottom=0;right=0;align=left;spacingLeft=6;fontStyle=5;overflow=hidden;html=1;whiteSpace=wrap;" vertex="1" parent="cielFp2i9ixUdL_3kRZ_-38">
          <mxGeometry x="60" width="120" height="30" as="geometry">
            <mxRectangle width="120" height="30" as="alternateBounds" />
          </mxGeometry>
        </mxCell>
        <mxCell id="cielFp2i9ixUdL_3kRZ_-47" value="" style="edgeStyle=entityRelationEdgeStyle;fontSize=12;html=1;endArrow=ERoneToMany;startArrow=ERmandOne;rounded=0;" edge="1" parent="1" source="cielFp2i9ixUdL_3kRZ_-2" target="cielFp2i9ixUdL_3kRZ_-38">
          <mxGeometry width="100" height="100" relative="1" as="geometry">
            <mxPoint x="217" y="359" as="sourcePoint" />
            <mxPoint x="317" y="259" as="targetPoint" />
          </mxGeometry>
        </mxCell>
        <mxCell id="cielFp2i9ixUdL_3kRZ_-48" value="" style="edgeStyle=entityRelationEdgeStyle;fontSize=12;html=1;endArrow=ERoneToMany;startArrow=ERmandOne;rounded=0;" edge="1" parent="1" source="cielFp2i9ixUdL_3kRZ_-15" target="cielFp2i9ixUdL_3kRZ_-35">
          <mxGeometry width="100" height="100" relative="1" as="geometry">
            <mxPoint x="217" y="359" as="sourcePoint" />
            <mxPoint x="317" y="259" as="targetPoint" />
          </mxGeometry>
        </mxCell>
        <mxCell id="cielFp2i9ixUdL_3kRZ_-49" value="Pack" style="shape=table;startSize=30;container=1;collapsible=1;childLayout=tableLayout;fixedRows=1;rowLines=0;fontStyle=1;align=center;resizeLast=1;html=1;" vertex="1" parent="1">
          <mxGeometry x="501" y="532" width="180" height="90" as="geometry" />
        </mxCell>
        <mxCell id="cielFp2i9ixUdL_3kRZ_-50" value="" style="shape=tableRow;horizontal=0;startSize=0;swimlaneHead=0;swimlaneBody=0;fillColor=none;collapsible=0;dropTarget=0;points=[[0,0.5],[1,0.5]];portConstraint=eastwest;top=0;left=0;right=0;bottom=1;" vertex="1" parent="cielFp2i9ixUdL_3kRZ_-49">
          <mxGeometry y="30" width="180" height="30" as="geometry" />
        </mxCell>
        <mxCell id="cielFp2i9ixUdL_3kRZ_-51" value="PK" style="shape=partialRectangle;connectable=0;fillColor=none;top=0;left=0;bottom=0;right=0;fontStyle=1;overflow=hidden;whiteSpace=wrap;html=1;" vertex="1" parent="cielFp2i9ixUdL_3kRZ_-50">
          <mxGeometry width="30" height="30" as="geometry">
            <mxRectangle width="30" height="30" as="alternateBounds" />
          </mxGeometry>
        </mxCell>
        <mxCell id="cielFp2i9ixUdL_3kRZ_-52" value="IdPack" style="shape=partialRectangle;connectable=0;fillColor=none;top=0;left=0;bottom=0;right=0;align=left;spacingLeft=6;fontStyle=5;overflow=hidden;whiteSpace=wrap;html=1;" vertex="1" parent="cielFp2i9ixUdL_3kRZ_-50">
          <mxGeometry x="30" width="150" height="30" as="geometry">
            <mxRectangle width="150" height="30" as="alternateBounds" />
          </mxGeometry>
        </mxCell>
        <mxCell id="cielFp2i9ixUdL_3kRZ_-53" value="" style="shape=tableRow;horizontal=0;startSize=0;swimlaneHead=0;swimlaneBody=0;fillColor=none;collapsible=0;dropTarget=0;points=[[0,0.5],[1,0.5]];portConstraint=eastwest;top=0;left=0;right=0;bottom=0;" vertex="1" parent="cielFp2i9ixUdL_3kRZ_-49">
          <mxGeometry y="60" width="180" height="30" as="geometry" />
        </mxCell>
        <mxCell id="cielFp2i9ixUdL_3kRZ_-54" value="nn" style="shape=partialRectangle;connectable=0;fillColor=none;top=0;left=0;bottom=0;right=0;editable=1;overflow=hidden;whiteSpace=wrap;html=1;" vertex="1" parent="cielFp2i9ixUdL_3kRZ_-53">
          <mxGeometry width="30" height="30" as="geometry">
            <mxRectangle width="30" height="30" as="alternateBounds" />
          </mxGeometry>
        </mxCell>
        <mxCell id="cielFp2i9ixUdL_3kRZ_-55" value="Nombre" style="shape=partialRectangle;connectable=0;fillColor=none;top=0;left=0;bottom=0;right=0;align=left;spacingLeft=6;overflow=hidden;whiteSpace=wrap;html=1;" vertex="1" parent="cielFp2i9ixUdL_3kRZ_-53">
          <mxGeometry x="30" width="150" height="30" as="geometry">
            <mxRectangle width="150" height="30" as="alternateBounds" />
          </mxGeometry>
        </mxCell>
        <mxCell id="cielFp2i9ixUdL_3kRZ_-62" value="PackTurista" style="shape=table;startSize=30;container=1;collapsible=1;childLayout=tableLayout;fixedRows=1;rowLines=0;fontStyle=1;align=center;resizeLast=1;html=1;whiteSpace=wrap;" vertex="1" parent="1">
          <mxGeometry x="501" y="373" width="180" height="90" as="geometry" />
        </mxCell>
        <mxCell id="cielFp2i9ixUdL_3kRZ_-63" value="" style="shape=tableRow;horizontal=0;startSize=0;swimlaneHead=0;swimlaneBody=0;fillColor=none;collapsible=0;dropTarget=0;points=[[0,0.5],[1,0.5]];portConstraint=eastwest;top=0;left=0;right=0;bottom=0;html=1;" vertex="1" parent="cielFp2i9ixUdL_3kRZ_-62">
          <mxGeometry y="30" width="180" height="30" as="geometry" />
        </mxCell>
        <mxCell id="cielFp2i9ixUdL_3kRZ_-64" value="PK,FK1" style="shape=partialRectangle;connectable=0;fillColor=none;top=0;left=0;bottom=0;right=0;fontStyle=1;overflow=hidden;html=1;whiteSpace=wrap;" vertex="1" parent="cielFp2i9ixUdL_3kRZ_-63">
          <mxGeometry width="60" height="30" as="geometry">
            <mxRectangle width="60" height="30" as="alternateBounds" />
          </mxGeometry>
        </mxCell>
        <mxCell id="cielFp2i9ixUdL_3kRZ_-65" value="IdTurista" style="shape=partialRectangle;connectable=0;fillColor=none;top=0;left=0;bottom=0;right=0;align=left;spacingLeft=6;fontStyle=5;overflow=hidden;html=1;whiteSpace=wrap;" vertex="1" parent="cielFp2i9ixUdL_3kRZ_-63">
          <mxGeometry x="60" width="120" height="30" as="geometry">
            <mxRectangle width="120" height="30" as="alternateBounds" />
          </mxGeometry>
        </mxCell>
        <mxCell id="cielFp2i9ixUdL_3kRZ_-66" value="" style="shape=tableRow;horizontal=0;startSize=0;swimlaneHead=0;swimlaneBody=0;fillColor=none;collapsible=0;dropTarget=0;points=[[0,0.5],[1,0.5]];portConstraint=eastwest;top=0;left=0;right=0;bottom=1;html=1;" vertex="1" parent="cielFp2i9ixUdL_3kRZ_-62">
          <mxGeometry y="60" width="180" height="30" as="geometry" />
        </mxCell>
        <mxCell id="cielFp2i9ixUdL_3kRZ_-67" value="PK,FK2" style="shape=partialRectangle;connectable=0;fillColor=none;top=0;left=0;bottom=0;right=0;fontStyle=1;overflow=hidden;html=1;whiteSpace=wrap;" vertex="1" parent="cielFp2i9ixUdL_3kRZ_-66">
          <mxGeometry width="60" height="30" as="geometry">
            <mxRectangle width="60" height="30" as="alternateBounds" />
          </mxGeometry>
        </mxCell>
        <mxCell id="cielFp2i9ixUdL_3kRZ_-68" value="IdPack" style="shape=partialRectangle;connectable=0;fillColor=none;top=0;left=0;bottom=0;right=0;align=left;spacingLeft=6;fontStyle=5;overflow=hidden;html=1;whiteSpace=wrap;" vertex="1" parent="cielFp2i9ixUdL_3kRZ_-66">
          <mxGeometry x="60" width="120" height="30" as="geometry">
            <mxRectangle width="120" height="30" as="alternateBounds" />
          </mxGeometry>
        </mxCell>
        <mxCell id="cielFp2i9ixUdL_3kRZ_-75" value="" style="edgeStyle=entityRelationEdgeStyle;fontSize=12;html=1;endArrow=ERzeroToMany;startArrow=ERmandOne;rounded=0;" edge="1" parent="1" source="cielFp2i9ixUdL_3kRZ_-50" target="cielFp2i9ixUdL_3kRZ_-66">
          <mxGeometry width="100" height="100" relative="1" as="geometry">
            <mxPoint x="531" y="589" as="sourcePoint" />
            <mxPoint x="631" y="489" as="targetPoint" />
          </mxGeometry>
        </mxCell>
        <mxCell id="cielFp2i9ixUdL_3kRZ_-76" value="" style="edgeStyle=entityRelationEdgeStyle;fontSize=12;html=1;endArrow=ERzeroToMany;startArrow=ERmandOne;rounded=0;" edge="1" parent="1" target="cielFp2i9ixUdL_3kRZ_-63">
          <mxGeometry width="100" height="100" relative="1" as="geometry">
            <mxPoint x="671" y="159" as="sourcePoint" />
            <mxPoint x="578" y="396" as="targetPoint" />
            <Array as="points">
              <mxPoint x="765" y="307" />
              <mxPoint x="713" y="309" />
              <mxPoint x="721" y="304" />
              <mxPoint x="581" y="281" />
              <mxPoint x="780" y="307" />
            </Array>
          </mxGeometry>
        </mxCell>
        <mxCell id="cielFp2i9ixUdL_3kRZ_-95" value="Elemento" style="shape=table;startSize=30;container=1;collapsible=1;childLayout=tableLayout;fixedRows=1;rowLines=0;fontStyle=1;align=center;resizeLast=1;html=1;" vertex="1" parent="1">
          <mxGeometry x="203" y="528" width="180" height="120" as="geometry" />
        </mxCell>
        <mxCell id="cielFp2i9ixUdL_3kRZ_-96" value="" style="shape=tableRow;horizontal=0;startSize=0;swimlaneHead=0;swimlaneBody=0;fillColor=none;collapsible=0;dropTarget=0;points=[[0,0.5],[1,0.5]];portConstraint=eastwest;top=0;left=0;right=0;bottom=1;" vertex="1" parent="cielFp2i9ixUdL_3kRZ_-95">
          <mxGeometry y="30" width="180" height="30" as="geometry" />
        </mxCell>
        <mxCell id="cielFp2i9ixUdL_3kRZ_-97" value="PK" style="shape=partialRectangle;connectable=0;fillColor=none;top=0;left=0;bottom=0;right=0;fontStyle=1;overflow=hidden;whiteSpace=wrap;html=1;" vertex="1" parent="cielFp2i9ixUdL_3kRZ_-96">
          <mxGeometry width="47.74136117788461" height="30" as="geometry">
            <mxRectangle width="47.74136117788461" height="30" as="alternateBounds" />
          </mxGeometry>
        </mxCell>
        <mxCell id="cielFp2i9ixUdL_3kRZ_-98" value="IdElemento" style="shape=partialRectangle;connectable=0;fillColor=none;top=0;left=0;bottom=0;right=0;align=left;spacingLeft=6;fontStyle=5;overflow=hidden;whiteSpace=wrap;html=1;" vertex="1" parent="cielFp2i9ixUdL_3kRZ_-96">
          <mxGeometry x="47.74136117788461" width="132.2586388221154" height="30" as="geometry">
            <mxRectangle width="132.2586388221154" height="30" as="alternateBounds" />
          </mxGeometry>
        </mxCell>
        <mxCell id="cielFp2i9ixUdL_3kRZ_-99" value="" style="shape=tableRow;horizontal=0;startSize=0;swimlaneHead=0;swimlaneBody=0;fillColor=none;collapsible=0;dropTarget=0;points=[[0,0.5],[1,0.5]];portConstraint=eastwest;top=0;left=0;right=0;bottom=0;" vertex="1" parent="cielFp2i9ixUdL_3kRZ_-95">
          <mxGeometry y="60" width="180" height="30" as="geometry" />
        </mxCell>
        <mxCell id="cielFp2i9ixUdL_3kRZ_-100" value="fk, nn" style="shape=partialRectangle;connectable=0;fillColor=none;top=0;left=0;bottom=0;right=0;editable=1;overflow=hidden;whiteSpace=wrap;html=1;" vertex="1" parent="cielFp2i9ixUdL_3kRZ_-99">
          <mxGeometry width="47.74136117788461" height="30" as="geometry">
            <mxRectangle width="47.74136117788461" height="30" as="alternateBounds" />
          </mxGeometry>
        </mxCell>
        <mxCell id="cielFp2i9ixUdL_3kRZ_-101" value="IdPack" style="shape=partialRectangle;connectable=0;fillColor=none;top=0;left=0;bottom=0;right=0;align=left;spacingLeft=6;overflow=hidden;whiteSpace=wrap;html=1;" vertex="1" parent="cielFp2i9ixUdL_3kRZ_-99">
          <mxGeometry x="47.74136117788461" width="132.2586388221154" height="30" as="geometry">
            <mxRectangle width="132.2586388221154" height="30" as="alternateBounds" />
          </mxGeometry>
        </mxCell>
        <mxCell id="cielFp2i9ixUdL_3kRZ_-102" value="" style="shape=tableRow;horizontal=0;startSize=0;swimlaneHead=0;swimlaneBody=0;fillColor=none;collapsible=0;dropTarget=0;points=[[0,0.5],[1,0.5]];portConstraint=eastwest;top=0;left=0;right=0;bottom=0;" vertex="1" parent="cielFp2i9ixUdL_3kRZ_-95">
          <mxGeometry y="90" width="180" height="30" as="geometry" />
        </mxCell>
        <mxCell id="cielFp2i9ixUdL_3kRZ_-103" value="nn" style="shape=partialRectangle;connectable=0;fillColor=none;top=0;left=0;bottom=0;right=0;editable=1;overflow=hidden;whiteSpace=wrap;html=1;" vertex="1" parent="cielFp2i9ixUdL_3kRZ_-102">
          <mxGeometry width="47.74136117788461" height="30" as="geometry">
            <mxRectangle width="47.74136117788461" height="30" as="alternateBounds" />
          </mxGeometry>
        </mxCell>
        <mxCell id="cielFp2i9ixUdL_3kRZ_-104" value="Nombre" style="shape=partialRectangle;connectable=0;fillColor=none;top=0;left=0;bottom=0;right=0;align=left;spacingLeft=6;overflow=hidden;whiteSpace=wrap;html=1;" vertex="1" parent="cielFp2i9ixUdL_3kRZ_-102">
          <mxGeometry x="47.74136117788461" width="132.2586388221154" height="30" as="geometry">
            <mxRectangle width="132.2586388221154" height="30" as="alternateBounds" />
          </mxGeometry>
        </mxCell>
        <mxCell id="cielFp2i9ixUdL_3kRZ_-108" value="" style="edgeStyle=entityRelationEdgeStyle;fontSize=12;html=1;endArrow=ERoneToMany;startArrow=ERmandOne;rounded=0;" edge="1" parent="1" source="cielFp2i9ixUdL_3kRZ_-50" target="cielFp2i9ixUdL_3kRZ_-99">
          <mxGeometry width="100" height="100" relative="1" as="geometry">
            <mxPoint x="544" y="586" as="sourcePoint" />
            <mxPoint x="644" y="486" as="targetPoint" />
          </mxGeometry>
        </mxCell>
        <mxCell id="cielFp2i9ixUdL_3kRZ_-109" value="Partido" style="shape=table;startSize=30;container=1;collapsible=1;childLayout=tableLayout;fixedRows=1;rowLines=0;fontStyle=1;align=center;resizeLast=1;html=1;" vertex="1" parent="1">
          <mxGeometry x="484" y="-295" width="180" height="120" as="geometry" />
        </mxCell>
        <mxCell id="cielFp2i9ixUdL_3kRZ_-110" value="" style="shape=tableRow;horizontal=0;startSize=0;swimlaneHead=0;swimlaneBody=0;fillColor=none;collapsible=0;dropTarget=0;points=[[0,0.5],[1,0.5]];portConstraint=eastwest;top=0;left=0;right=0;bottom=1;" vertex="1" parent="cielFp2i9ixUdL_3kRZ_-109">
          <mxGeometry y="30" width="180" height="30" as="geometry" />
        </mxCell>
        <mxCell id="cielFp2i9ixUdL_3kRZ_-111" value="PK" style="shape=partialRectangle;connectable=0;fillColor=none;top=0;left=0;bottom=0;right=0;fontStyle=1;overflow=hidden;whiteSpace=wrap;html=1;" vertex="1" parent="cielFp2i9ixUdL_3kRZ_-110">
          <mxGeometry width="30" height="30" as="geometry">
            <mxRectangle width="30" height="30" as="alternateBounds" />
          </mxGeometry>
        </mxCell>
        <mxCell id="cielFp2i9ixUdL_3kRZ_-112" value="IdPartido" style="shape=partialRectangle;connectable=0;fillColor=none;top=0;left=0;bottom=0;right=0;align=left;spacingLeft=6;fontStyle=5;overflow=hidden;whiteSpace=wrap;html=1;" vertex="1" parent="cielFp2i9ixUdL_3kRZ_-110">
          <mxGeometry x="30" width="150" height="30" as="geometry">
            <mxRectangle width="150" height="30" as="alternateBounds" />
          </mxGeometry>
        </mxCell>
        <mxCell id="cielFp2i9ixUdL_3kRZ_-113" value="" style="shape=tableRow;horizontal=0;startSize=0;swimlaneHead=0;swimlaneBody=0;fillColor=none;collapsible=0;dropTarget=0;points=[[0,0.5],[1,0.5]];portConstraint=eastwest;top=0;left=0;right=0;bottom=0;" vertex="1" parent="cielFp2i9ixUdL_3kRZ_-109">
          <mxGeometry y="60" width="180" height="30" as="geometry" />
        </mxCell>
        <mxCell id="cielFp2i9ixUdL_3kRZ_-114" value="nn" style="shape=partialRectangle;connectable=0;fillColor=none;top=0;left=0;bottom=0;right=0;editable=1;overflow=hidden;whiteSpace=wrap;html=1;" vertex="1" parent="cielFp2i9ixUdL_3kRZ_-113">
          <mxGeometry width="30" height="30" as="geometry">
            <mxRectangle width="30" height="30" as="alternateBounds" />
          </mxGeometry>
        </mxCell>
        <mxCell id="cielFp2i9ixUdL_3kRZ_-115" value="Estadio" style="shape=partialRectangle;connectable=0;fillColor=none;top=0;left=0;bottom=0;right=0;align=left;spacingLeft=6;overflow=hidden;whiteSpace=wrap;html=1;" vertex="1" parent="cielFp2i9ixUdL_3kRZ_-113">
          <mxGeometry x="30" width="150" height="30" as="geometry">
            <mxRectangle width="150" height="30" as="alternateBounds" />
          </mxGeometry>
        </mxCell>
        <mxCell id="cielFp2i9ixUdL_3kRZ_-116" value="" style="shape=tableRow;horizontal=0;startSize=0;swimlaneHead=0;swimlaneBody=0;fillColor=none;collapsible=0;dropTarget=0;points=[[0,0.5],[1,0.5]];portConstraint=eastwest;top=0;left=0;right=0;bottom=0;" vertex="1" parent="cielFp2i9ixUdL_3kRZ_-109">
          <mxGeometry y="90" width="180" height="30" as="geometry" />
        </mxCell>
        <mxCell id="cielFp2i9ixUdL_3kRZ_-117" value="" style="shape=partialRectangle;connectable=0;fillColor=none;top=0;left=0;bottom=0;right=0;editable=1;overflow=hidden;whiteSpace=wrap;html=1;" vertex="1" parent="cielFp2i9ixUdL_3kRZ_-116">
          <mxGeometry width="30" height="30" as="geometry">
            <mxRectangle width="30" height="30" as="alternateBounds" />
          </mxGeometry>
        </mxCell>
        <mxCell id="cielFp2i9ixUdL_3kRZ_-118" value="Fecha" style="shape=partialRectangle;connectable=0;fillColor=none;top=0;left=0;bottom=0;right=0;align=left;spacingLeft=6;overflow=hidden;whiteSpace=wrap;html=1;" vertex="1" parent="cielFp2i9ixUdL_3kRZ_-116">
          <mxGeometry x="30" width="150" height="30" as="geometry">
            <mxRectangle width="150" height="30" as="alternateBounds" />
          </mxGeometry>
        </mxCell>
        <mxCell id="cielFp2i9ixUdL_3kRZ_-122" value="AsistenciasPartido" style="shape=table;startSize=30;container=1;collapsible=1;childLayout=tableLayout;fixedRows=1;rowLines=0;fontStyle=1;align=center;resizeLast=1;html=1;whiteSpace=wrap;" vertex="1" parent="1">
          <mxGeometry x="484" y="-99" width="180" height="90" as="geometry" />
        </mxCell>
        <mxCell id="cielFp2i9ixUdL_3kRZ_-123" value="" style="shape=tableRow;horizontal=0;startSize=0;swimlaneHead=0;swimlaneBody=0;fillColor=none;collapsible=0;dropTarget=0;points=[[0,0.5],[1,0.5]];portConstraint=eastwest;top=0;left=0;right=0;bottom=0;html=1;" vertex="1" parent="cielFp2i9ixUdL_3kRZ_-122">
          <mxGeometry y="30" width="180" height="30" as="geometry" />
        </mxCell>
        <mxCell id="cielFp2i9ixUdL_3kRZ_-124" value="PK,FK1" style="shape=partialRectangle;connectable=0;fillColor=none;top=0;left=0;bottom=0;right=0;fontStyle=1;overflow=hidden;html=1;whiteSpace=wrap;" vertex="1" parent="cielFp2i9ixUdL_3kRZ_-123">
          <mxGeometry width="60" height="30" as="geometry">
            <mxRectangle width="60" height="30" as="alternateBounds" />
          </mxGeometry>
        </mxCell>
        <mxCell id="cielFp2i9ixUdL_3kRZ_-125" value="IdPartido" style="shape=partialRectangle;connectable=0;fillColor=none;top=0;left=0;bottom=0;right=0;align=left;spacingLeft=6;fontStyle=5;overflow=hidden;html=1;whiteSpace=wrap;" vertex="1" parent="cielFp2i9ixUdL_3kRZ_-123">
          <mxGeometry x="60" width="120" height="30" as="geometry">
            <mxRectangle width="120" height="30" as="alternateBounds" />
          </mxGeometry>
        </mxCell>
        <mxCell id="cielFp2i9ixUdL_3kRZ_-126" value="" style="shape=tableRow;horizontal=0;startSize=0;swimlaneHead=0;swimlaneBody=0;fillColor=none;collapsible=0;dropTarget=0;points=[[0,0.5],[1,0.5]];portConstraint=eastwest;top=0;left=0;right=0;bottom=1;html=1;" vertex="1" parent="cielFp2i9ixUdL_3kRZ_-122">
          <mxGeometry y="60" width="180" height="30" as="geometry" />
        </mxCell>
        <mxCell id="cielFp2i9ixUdL_3kRZ_-127" value="PK,FK2" style="shape=partialRectangle;connectable=0;fillColor=none;top=0;left=0;bottom=0;right=0;fontStyle=1;overflow=hidden;html=1;whiteSpace=wrap;" vertex="1" parent="cielFp2i9ixUdL_3kRZ_-126">
          <mxGeometry width="60" height="30" as="geometry">
            <mxRectangle width="60" height="30" as="alternateBounds" />
          </mxGeometry>
        </mxCell>
        <mxCell id="cielFp2i9ixUdL_3kRZ_-128" value="IdTurista" style="shape=partialRectangle;connectable=0;fillColor=none;top=0;left=0;bottom=0;right=0;align=left;spacingLeft=6;fontStyle=5;overflow=hidden;html=1;whiteSpace=wrap;" vertex="1" parent="cielFp2i9ixUdL_3kRZ_-126">
          <mxGeometry x="60" width="120" height="30" as="geometry">
            <mxRectangle width="120" height="30" as="alternateBounds" />
          </mxGeometry>
        </mxCell>
        <mxCell id="cielFp2i9ixUdL_3kRZ_-136" style="edgeStyle=orthogonalEdgeStyle;rounded=0;orthogonalLoop=1;jettySize=auto;html=1;entryX=0.5;entryY=0;entryDx=0;entryDy=0;startArrow=ERzeroToMany;startFill=0;endArrow=ERmandOne;endFill=0;" edge="1" parent="1" source="cielFp2i9ixUdL_3kRZ_-126" target="cielFp2i9ixUdL_3kRZ_-14">
          <mxGeometry relative="1" as="geometry" />
        </mxCell>
        <mxCell id="cielFp2i9ixUdL_3kRZ_-137" style="edgeStyle=orthogonalEdgeStyle;rounded=0;orthogonalLoop=1;jettySize=auto;html=1;exitX=0;exitY=0.5;exitDx=0;exitDy=0;entryX=0;entryY=0.5;entryDx=0;entryDy=0;startArrow=ERmandOne;startFill=0;endArrow=ERoneToMany;endFill=0;" edge="1" parent="1" source="cielFp2i9ixUdL_3kRZ_-110" target="cielFp2i9ixUdL_3kRZ_-123">
          <mxGeometry relative="1" as="geometry" />
        </mxCell>
        <mxCell id="cielFp2i9ixUdL_3kRZ_-138" value="Arbitro" style="shape=table;startSize=30;container=1;collapsible=1;childLayout=tableLayout;fixedRows=1;rowLines=0;fontStyle=1;align=center;resizeLast=1;html=1;" vertex="1" parent="1">
          <mxGeometry x="779" y="-368" width="180" height="120" as="geometry" />
        </mxCell>
        <mxCell id="cielFp2i9ixUdL_3kRZ_-139" value="" style="shape=tableRow;horizontal=0;startSize=0;swimlaneHead=0;swimlaneBody=0;fillColor=none;collapsible=0;dropTarget=0;points=[[0,0.5],[1,0.5]];portConstraint=eastwest;top=0;left=0;right=0;bottom=1;" vertex="1" parent="cielFp2i9ixUdL_3kRZ_-138">
          <mxGeometry y="30" width="180" height="30" as="geometry" />
        </mxCell>
        <mxCell id="cielFp2i9ixUdL_3kRZ_-140" value="PK" style="shape=partialRectangle;connectable=0;fillColor=none;top=0;left=0;bottom=0;right=0;fontStyle=1;overflow=hidden;whiteSpace=wrap;html=1;" vertex="1" parent="cielFp2i9ixUdL_3kRZ_-139">
          <mxGeometry width="39.1819233141448" height="30" as="geometry">
            <mxRectangle width="39.1819233141448" height="30" as="alternateBounds" />
          </mxGeometry>
        </mxCell>
        <mxCell id="cielFp2i9ixUdL_3kRZ_-141" value="IdArbitro" style="shape=partialRectangle;connectable=0;fillColor=none;top=0;left=0;bottom=0;right=0;align=left;spacingLeft=6;fontStyle=5;overflow=hidden;whiteSpace=wrap;html=1;" vertex="1" parent="cielFp2i9ixUdL_3kRZ_-139">
          <mxGeometry x="39.1819233141448" width="140.8180766858552" height="30" as="geometry">
            <mxRectangle width="140.8180766858552" height="30" as="alternateBounds" />
          </mxGeometry>
        </mxCell>
        <mxCell id="cielFp2i9ixUdL_3kRZ_-142" value="" style="shape=tableRow;horizontal=0;startSize=0;swimlaneHead=0;swimlaneBody=0;fillColor=none;collapsible=0;dropTarget=0;points=[[0,0.5],[1,0.5]];portConstraint=eastwest;top=0;left=0;right=0;bottom=0;" vertex="1" parent="cielFp2i9ixUdL_3kRZ_-138">
          <mxGeometry y="60" width="180" height="30" as="geometry" />
        </mxCell>
        <mxCell id="cielFp2i9ixUdL_3kRZ_-143" value="fk, nn" style="shape=partialRectangle;connectable=0;fillColor=none;top=0;left=0;bottom=0;right=0;editable=1;overflow=hidden;whiteSpace=wrap;html=1;" vertex="1" parent="cielFp2i9ixUdL_3kRZ_-142">
          <mxGeometry width="39.1819233141448" height="30" as="geometry">
            <mxRectangle width="39.1819233141448" height="30" as="alternateBounds" />
          </mxGeometry>
        </mxCell>
        <mxCell id="cielFp2i9ixUdL_3kRZ_-144" value="IdPartido" style="shape=partialRectangle;connectable=0;fillColor=none;top=0;left=0;bottom=0;right=0;align=left;spacingLeft=6;overflow=hidden;whiteSpace=wrap;html=1;" vertex="1" parent="cielFp2i9ixUdL_3kRZ_-142">
          <mxGeometry x="39.1819233141448" width="140.8180766858552" height="30" as="geometry">
            <mxRectangle width="140.8180766858552" height="30" as="alternateBounds" />
          </mxGeometry>
        </mxCell>
        <mxCell id="cielFp2i9ixUdL_3kRZ_-145" value="" style="shape=tableRow;horizontal=0;startSize=0;swimlaneHead=0;swimlaneBody=0;fillColor=none;collapsible=0;dropTarget=0;points=[[0,0.5],[1,0.5]];portConstraint=eastwest;top=0;left=0;right=0;bottom=0;" vertex="1" parent="cielFp2i9ixUdL_3kRZ_-138">
          <mxGeometry y="90" width="180" height="30" as="geometry" />
        </mxCell>
        <mxCell id="cielFp2i9ixUdL_3kRZ_-146" value="" style="shape=partialRectangle;connectable=0;fillColor=none;top=0;left=0;bottom=0;right=0;editable=1;overflow=hidden;whiteSpace=wrap;html=1;" vertex="1" parent="cielFp2i9ixUdL_3kRZ_-145">
          <mxGeometry width="39.1819233141448" height="30" as="geometry">
            <mxRectangle width="39.1819233141448" height="30" as="alternateBounds" />
          </mxGeometry>
        </mxCell>
        <mxCell id="cielFp2i9ixUdL_3kRZ_-147" value="Nombre" style="shape=partialRectangle;connectable=0;fillColor=none;top=0;left=0;bottom=0;right=0;align=left;spacingLeft=6;overflow=hidden;whiteSpace=wrap;html=1;" vertex="1" parent="cielFp2i9ixUdL_3kRZ_-145">
          <mxGeometry x="39.1819233141448" width="140.8180766858552" height="30" as="geometry">
            <mxRectangle width="140.8180766858552" height="30" as="alternateBounds" />
          </mxGeometry>
        </mxCell>
        <mxCell id="cielFp2i9ixUdL_3kRZ_-154" style="edgeStyle=entityRelationEdgeStyle;rounded=0;orthogonalLoop=1;jettySize=auto;html=1;exitX=0.998;exitY=0.214;exitDx=0;exitDy=0;startArrow=ERmandOne;startFill=0;endArrow=ERoneToMany;endFill=0;exitPerimeter=0;" edge="1" parent="1" source="cielFp2i9ixUdL_3kRZ_-110" target="cielFp2i9ixUdL_3kRZ_-142">
          <mxGeometry relative="1" as="geometry" />
        </mxCell>
        <mxCell id="cielFp2i9ixUdL_3kRZ_-155" value="Equipos" style="shape=table;startSize=30;container=1;collapsible=1;childLayout=tableLayout;fixedRows=1;rowLines=0;fontStyle=1;align=center;resizeLast=1;html=1;" vertex="1" parent="1">
          <mxGeometry x="-123" y="-525" width="180" height="210" as="geometry" />
        </mxCell>
        <mxCell id="cielFp2i9ixUdL_3kRZ_-156" value="" style="shape=tableRow;horizontal=0;startSize=0;swimlaneHead=0;swimlaneBody=0;fillColor=none;collapsible=0;dropTarget=0;points=[[0,0.5],[1,0.5]];portConstraint=eastwest;top=0;left=0;right=0;bottom=1;" vertex="1" parent="cielFp2i9ixUdL_3kRZ_-155">
          <mxGeometry y="30" width="180" height="30" as="geometry" />
        </mxCell>
        <mxCell id="cielFp2i9ixUdL_3kRZ_-157" value="PK" style="shape=partialRectangle;connectable=0;fillColor=none;top=0;left=0;bottom=0;right=0;fontStyle=1;overflow=hidden;whiteSpace=wrap;html=1;" vertex="1" parent="cielFp2i9ixUdL_3kRZ_-156">
          <mxGeometry width="30" height="30" as="geometry">
            <mxRectangle width="30" height="30" as="alternateBounds" />
          </mxGeometry>
        </mxCell>
        <mxCell id="cielFp2i9ixUdL_3kRZ_-158" value="IdEquipo" style="shape=partialRectangle;connectable=0;fillColor=none;top=0;left=0;bottom=0;right=0;align=left;spacingLeft=6;fontStyle=5;overflow=hidden;whiteSpace=wrap;html=1;" vertex="1" parent="cielFp2i9ixUdL_3kRZ_-156">
          <mxGeometry x="30" width="150" height="30" as="geometry">
            <mxRectangle width="150" height="30" as="alternateBounds" />
          </mxGeometry>
        </mxCell>
        <mxCell id="cielFp2i9ixUdL_3kRZ_-159" value="" style="shape=tableRow;horizontal=0;startSize=0;swimlaneHead=0;swimlaneBody=0;fillColor=none;collapsible=0;dropTarget=0;points=[[0,0.5],[1,0.5]];portConstraint=eastwest;top=0;left=0;right=0;bottom=0;" vertex="1" parent="cielFp2i9ixUdL_3kRZ_-155">
          <mxGeometry y="60" width="180" height="30" as="geometry" />
        </mxCell>
        <mxCell id="cielFp2i9ixUdL_3kRZ_-160" value="uk" style="shape=partialRectangle;connectable=0;fillColor=none;top=0;left=0;bottom=0;right=0;editable=1;overflow=hidden;whiteSpace=wrap;html=1;" vertex="1" parent="cielFp2i9ixUdL_3kRZ_-159">
          <mxGeometry width="30" height="30" as="geometry">
            <mxRectangle width="30" height="30" as="alternateBounds" />
          </mxGeometry>
        </mxCell>
        <mxCell id="cielFp2i9ixUdL_3kRZ_-161" value="Pais" style="shape=partialRectangle;connectable=0;fillColor=none;top=0;left=0;bottom=0;right=0;align=left;spacingLeft=6;overflow=hidden;whiteSpace=wrap;html=1;" vertex="1" parent="cielFp2i9ixUdL_3kRZ_-159">
          <mxGeometry x="30" width="150" height="30" as="geometry">
            <mxRectangle width="150" height="30" as="alternateBounds" />
          </mxGeometry>
        </mxCell>
        <mxCell id="cielFp2i9ixUdL_3kRZ_-162" value="" style="shape=tableRow;horizontal=0;startSize=0;swimlaneHead=0;swimlaneBody=0;fillColor=none;collapsible=0;dropTarget=0;points=[[0,0.5],[1,0.5]];portConstraint=eastwest;top=0;left=0;right=0;bottom=0;" vertex="1" parent="cielFp2i9ixUdL_3kRZ_-155">
          <mxGeometry y="90" width="180" height="30" as="geometry" />
        </mxCell>
        <mxCell id="cielFp2i9ixUdL_3kRZ_-163" value="nn" style="shape=partialRectangle;connectable=0;fillColor=none;top=0;left=0;bottom=0;right=0;editable=1;overflow=hidden;whiteSpace=wrap;html=1;" vertex="1" parent="cielFp2i9ixUdL_3kRZ_-162">
          <mxGeometry width="30" height="30" as="geometry">
            <mxRectangle width="30" height="30" as="alternateBounds" />
          </mxGeometry>
        </mxCell>
        <mxCell id="cielFp2i9ixUdL_3kRZ_-164" value="Sede" style="shape=partialRectangle;connectable=0;fillColor=none;top=0;left=0;bottom=0;right=0;align=left;spacingLeft=6;overflow=hidden;whiteSpace=wrap;html=1;" vertex="1" parent="cielFp2i9ixUdL_3kRZ_-162">
          <mxGeometry x="30" width="150" height="30" as="geometry">
            <mxRectangle width="150" height="30" as="alternateBounds" />
          </mxGeometry>
        </mxCell>
        <mxCell id="cielFp2i9ixUdL_3kRZ_-165" value="" style="shape=tableRow;horizontal=0;startSize=0;swimlaneHead=0;swimlaneBody=0;fillColor=none;collapsible=0;dropTarget=0;points=[[0,0.5],[1,0.5]];portConstraint=eastwest;top=0;left=0;right=0;bottom=0;" vertex="1" parent="cielFp2i9ixUdL_3kRZ_-155">
          <mxGeometry y="120" width="180" height="30" as="geometry" />
        </mxCell>
        <mxCell id="cielFp2i9ixUdL_3kRZ_-166" value="nn" style="shape=partialRectangle;connectable=0;fillColor=none;top=0;left=0;bottom=0;right=0;editable=1;overflow=hidden;whiteSpace=wrap;html=1;" vertex="1" parent="cielFp2i9ixUdL_3kRZ_-165">
          <mxGeometry width="30" height="30" as="geometry">
            <mxRectangle width="30" height="30" as="alternateBounds" />
          </mxGeometry>
        </mxCell>
        <mxCell id="cielFp2i9ixUdL_3kRZ_-167" value="MundialesGanados" style="shape=partialRectangle;connectable=0;fillColor=none;top=0;left=0;bottom=0;right=0;align=left;spacingLeft=6;overflow=hidden;whiteSpace=wrap;html=1;" vertex="1" parent="cielFp2i9ixUdL_3kRZ_-165">
          <mxGeometry x="30" width="150" height="30" as="geometry">
            <mxRectangle width="150" height="30" as="alternateBounds" />
          </mxGeometry>
        </mxCell>
        <mxCell id="cielFp2i9ixUdL_3kRZ_-168" value="" style="shape=tableRow;horizontal=0;startSize=0;swimlaneHead=0;swimlaneBody=0;fillColor=none;collapsible=0;dropTarget=0;points=[[0,0.5],[1,0.5]];portConstraint=eastwest;top=0;left=0;right=0;bottom=0;" vertex="1" parent="cielFp2i9ixUdL_3kRZ_-155">
          <mxGeometry y="150" width="180" height="30" as="geometry" />
        </mxCell>
        <mxCell id="cielFp2i9ixUdL_3kRZ_-169" value="nn" style="shape=partialRectangle;connectable=0;fillColor=none;top=0;left=0;bottom=0;right=0;editable=1;overflow=hidden;whiteSpace=wrap;html=1;" vertex="1" parent="cielFp2i9ixUdL_3kRZ_-168">
          <mxGeometry width="30" height="30" as="geometry">
            <mxRectangle width="30" height="30" as="alternateBounds" />
          </mxGeometry>
        </mxCell>
        <mxCell id="cielFp2i9ixUdL_3kRZ_-170" value="PartidosJugados" style="shape=partialRectangle;connectable=0;fillColor=none;top=0;left=0;bottom=0;right=0;align=left;spacingLeft=6;overflow=hidden;whiteSpace=wrap;html=1;" vertex="1" parent="cielFp2i9ixUdL_3kRZ_-168">
          <mxGeometry x="30" width="150" height="30" as="geometry">
            <mxRectangle width="150" height="30" as="alternateBounds" />
          </mxGeometry>
        </mxCell>
        <mxCell id="cielFp2i9ixUdL_3kRZ_-171" value="" style="shape=tableRow;horizontal=0;startSize=0;swimlaneHead=0;swimlaneBody=0;fillColor=none;collapsible=0;dropTarget=0;points=[[0,0.5],[1,0.5]];portConstraint=eastwest;top=0;left=0;right=0;bottom=0;" vertex="1" parent="cielFp2i9ixUdL_3kRZ_-155">
          <mxGeometry y="180" width="180" height="30" as="geometry" />
        </mxCell>
        <mxCell id="cielFp2i9ixUdL_3kRZ_-172" value="nn" style="shape=partialRectangle;connectable=0;fillColor=none;top=0;left=0;bottom=0;right=0;editable=1;overflow=hidden;whiteSpace=wrap;html=1;" vertex="1" parent="cielFp2i9ixUdL_3kRZ_-171">
          <mxGeometry width="30" height="30" as="geometry">
            <mxRectangle width="30" height="30" as="alternateBounds" />
          </mxGeometry>
        </mxCell>
        <mxCell id="cielFp2i9ixUdL_3kRZ_-173" value="NombreDT" style="shape=partialRectangle;connectable=0;fillColor=none;top=0;left=0;bottom=0;right=0;align=left;spacingLeft=6;overflow=hidden;whiteSpace=wrap;html=1;" vertex="1" parent="cielFp2i9ixUdL_3kRZ_-171">
          <mxGeometry x="30" width="150" height="30" as="geometry">
            <mxRectangle width="150" height="30" as="alternateBounds" />
          </mxGeometry>
        </mxCell>
        <mxCell id="cielFp2i9ixUdL_3kRZ_-174" value="Juegos" style="shape=table;startSize=30;container=1;collapsible=1;childLayout=tableLayout;fixedRows=1;rowLines=0;fontStyle=1;align=center;resizeLast=1;html=1;whiteSpace=wrap;" vertex="1" parent="1">
          <mxGeometry x="179" y="-490" width="180" height="90" as="geometry" />
        </mxCell>
        <mxCell id="cielFp2i9ixUdL_3kRZ_-175" value="" style="shape=tableRow;horizontal=0;startSize=0;swimlaneHead=0;swimlaneBody=0;fillColor=none;collapsible=0;dropTarget=0;points=[[0,0.5],[1,0.5]];portConstraint=eastwest;top=0;left=0;right=0;bottom=0;html=1;" vertex="1" parent="cielFp2i9ixUdL_3kRZ_-174">
          <mxGeometry y="30" width="180" height="30" as="geometry" />
        </mxCell>
        <mxCell id="cielFp2i9ixUdL_3kRZ_-176" value="PK,FK1" style="shape=partialRectangle;connectable=0;fillColor=none;top=0;left=0;bottom=0;right=0;fontStyle=1;overflow=hidden;html=1;whiteSpace=wrap;" vertex="1" parent="cielFp2i9ixUdL_3kRZ_-175">
          <mxGeometry width="60" height="30" as="geometry">
            <mxRectangle width="60" height="30" as="alternateBounds" />
          </mxGeometry>
        </mxCell>
        <mxCell id="cielFp2i9ixUdL_3kRZ_-177" value="IdEquipo" style="shape=partialRectangle;connectable=0;fillColor=none;top=0;left=0;bottom=0;right=0;align=left;spacingLeft=6;fontStyle=5;overflow=hidden;html=1;whiteSpace=wrap;" vertex="1" parent="cielFp2i9ixUdL_3kRZ_-175">
          <mxGeometry x="60" width="120" height="30" as="geometry">
            <mxRectangle width="120" height="30" as="alternateBounds" />
          </mxGeometry>
        </mxCell>
        <mxCell id="cielFp2i9ixUdL_3kRZ_-178" value="" style="shape=tableRow;horizontal=0;startSize=0;swimlaneHead=0;swimlaneBody=0;fillColor=none;collapsible=0;dropTarget=0;points=[[0,0.5],[1,0.5]];portConstraint=eastwest;top=0;left=0;right=0;bottom=1;html=1;" vertex="1" parent="cielFp2i9ixUdL_3kRZ_-174">
          <mxGeometry y="60" width="180" height="30" as="geometry" />
        </mxCell>
        <mxCell id="cielFp2i9ixUdL_3kRZ_-179" value="PK,FK2" style="shape=partialRectangle;connectable=0;fillColor=none;top=0;left=0;bottom=0;right=0;fontStyle=1;overflow=hidden;html=1;whiteSpace=wrap;" vertex="1" parent="cielFp2i9ixUdL_3kRZ_-178">
          <mxGeometry width="60" height="30" as="geometry">
            <mxRectangle width="60" height="30" as="alternateBounds" />
          </mxGeometry>
        </mxCell>
        <mxCell id="cielFp2i9ixUdL_3kRZ_-180" value="IdPartido" style="shape=partialRectangle;connectable=0;fillColor=none;top=0;left=0;bottom=0;right=0;align=left;spacingLeft=6;fontStyle=5;overflow=hidden;html=1;whiteSpace=wrap;" vertex="1" parent="cielFp2i9ixUdL_3kRZ_-178">
          <mxGeometry x="60" width="120" height="30" as="geometry">
            <mxRectangle width="120" height="30" as="alternateBounds" />
          </mxGeometry>
        </mxCell>
        <mxCell id="cielFp2i9ixUdL_3kRZ_-187" style="edgeStyle=entityRelationEdgeStyle;rounded=0;orthogonalLoop=1;jettySize=auto;html=1;exitX=1;exitY=0.5;exitDx=0;exitDy=0;entryX=0;entryY=0.122;entryDx=0;entryDy=0;endArrow=ERmandOne;endFill=0;startArrow=ERoneToMany;startFill=0;entryPerimeter=0;" edge="1" parent="1" source="cielFp2i9ixUdL_3kRZ_-178" target="cielFp2i9ixUdL_3kRZ_-109">
          <mxGeometry relative="1" as="geometry" />
        </mxCell>
        <mxCell id="cielFp2i9ixUdL_3kRZ_-188" style="edgeStyle=entityRelationEdgeStyle;rounded=0;orthogonalLoop=1;jettySize=auto;html=1;exitX=1;exitY=0.5;exitDx=0;exitDy=0;startArrow=ERmandOne;startFill=0;endArrow=ERoneToMany;endFill=0;" edge="1" parent="1" source="cielFp2i9ixUdL_3kRZ_-156" target="cielFp2i9ixUdL_3kRZ_-175">
          <mxGeometry relative="1" as="geometry" />
        </mxCell>
        <mxCell id="cielFp2i9ixUdL_3kRZ_-189" value="FunFest" style="shape=table;startSize=30;container=1;collapsible=1;childLayout=tableLayout;fixedRows=1;rowLines=0;fontStyle=1;align=center;resizeLast=1;html=1;" vertex="1" parent="1">
          <mxGeometry x="779" y="-175" width="180" height="150" as="geometry" />
        </mxCell>
        <mxCell id="cielFp2i9ixUdL_3kRZ_-190" value="" style="shape=tableRow;horizontal=0;startSize=0;swimlaneHead=0;swimlaneBody=0;fillColor=none;collapsible=0;dropTarget=0;points=[[0,0.5],[1,0.5]];portConstraint=eastwest;top=0;left=0;right=0;bottom=1;" vertex="1" parent="cielFp2i9ixUdL_3kRZ_-189">
          <mxGeometry y="30" width="180" height="30" as="geometry" />
        </mxCell>
        <mxCell id="cielFp2i9ixUdL_3kRZ_-191" value="PK" style="shape=partialRectangle;connectable=0;fillColor=none;top=0;left=0;bottom=0;right=0;fontStyle=1;overflow=hidden;whiteSpace=wrap;html=1;" vertex="1" parent="cielFp2i9ixUdL_3kRZ_-190">
          <mxGeometry width="44.374540441176805" height="30" as="geometry">
            <mxRectangle width="44.374540441176805" height="30" as="alternateBounds" />
          </mxGeometry>
        </mxCell>
        <mxCell id="cielFp2i9ixUdL_3kRZ_-192" value="UniqueID" style="shape=partialRectangle;connectable=0;fillColor=none;top=0;left=0;bottom=0;right=0;align=left;spacingLeft=6;fontStyle=5;overflow=hidden;whiteSpace=wrap;html=1;" vertex="1" parent="cielFp2i9ixUdL_3kRZ_-190">
          <mxGeometry x="44.374540441176805" width="135.6254595588232" height="30" as="geometry">
            <mxRectangle width="135.6254595588232" height="30" as="alternateBounds" />
          </mxGeometry>
        </mxCell>
        <mxCell id="cielFp2i9ixUdL_3kRZ_-193" value="" style="shape=tableRow;horizontal=0;startSize=0;swimlaneHead=0;swimlaneBody=0;fillColor=none;collapsible=0;dropTarget=0;points=[[0,0.5],[1,0.5]];portConstraint=eastwest;top=0;left=0;right=0;bottom=0;" vertex="1" parent="cielFp2i9ixUdL_3kRZ_-189">
          <mxGeometry y="60" width="180" height="30" as="geometry" />
        </mxCell>
        <mxCell id="cielFp2i9ixUdL_3kRZ_-194" value="uk, nn" style="shape=partialRectangle;connectable=0;fillColor=none;top=0;left=0;bottom=0;right=0;editable=1;overflow=hidden;whiteSpace=wrap;html=1;" vertex="1" parent="cielFp2i9ixUdL_3kRZ_-193">
          <mxGeometry width="44.374540441176805" height="30" as="geometry">
            <mxRectangle width="44.374540441176805" height="30" as="alternateBounds" />
          </mxGeometry>
        </mxCell>
        <mxCell id="cielFp2i9ixUdL_3kRZ_-195" value="Codigo" style="shape=partialRectangle;connectable=0;fillColor=none;top=0;left=0;bottom=0;right=0;align=left;spacingLeft=6;overflow=hidden;whiteSpace=wrap;html=1;" vertex="1" parent="cielFp2i9ixUdL_3kRZ_-193">
          <mxGeometry x="44.374540441176805" width="135.6254595588232" height="30" as="geometry">
            <mxRectangle width="135.6254595588232" height="30" as="alternateBounds" />
          </mxGeometry>
        </mxCell>
        <mxCell id="cielFp2i9ixUdL_3kRZ_-196" value="" style="shape=tableRow;horizontal=0;startSize=0;swimlaneHead=0;swimlaneBody=0;fillColor=none;collapsible=0;dropTarget=0;points=[[0,0.5],[1,0.5]];portConstraint=eastwest;top=0;left=0;right=0;bottom=0;" vertex="1" parent="cielFp2i9ixUdL_3kRZ_-189">
          <mxGeometry y="90" width="180" height="30" as="geometry" />
        </mxCell>
        <mxCell id="cielFp2i9ixUdL_3kRZ_-197" value="nn" style="shape=partialRectangle;connectable=0;fillColor=none;top=0;left=0;bottom=0;right=0;editable=1;overflow=hidden;whiteSpace=wrap;html=1;" vertex="1" parent="cielFp2i9ixUdL_3kRZ_-196">
          <mxGeometry width="44.374540441176805" height="30" as="geometry">
            <mxRectangle width="44.374540441176805" height="30" as="alternateBounds" />
          </mxGeometry>
        </mxCell>
        <mxCell id="cielFp2i9ixUdL_3kRZ_-198" value="Ciudad" style="shape=partialRectangle;connectable=0;fillColor=none;top=0;left=0;bottom=0;right=0;align=left;spacingLeft=6;overflow=hidden;whiteSpace=wrap;html=1;" vertex="1" parent="cielFp2i9ixUdL_3kRZ_-196">
          <mxGeometry x="44.374540441176805" width="135.6254595588232" height="30" as="geometry">
            <mxRectangle width="135.6254595588232" height="30" as="alternateBounds" />
          </mxGeometry>
        </mxCell>
        <mxCell id="cielFp2i9ixUdL_3kRZ_-199" value="" style="shape=tableRow;horizontal=0;startSize=0;swimlaneHead=0;swimlaneBody=0;fillColor=none;collapsible=0;dropTarget=0;points=[[0,0.5],[1,0.5]];portConstraint=eastwest;top=0;left=0;right=0;bottom=0;" vertex="1" parent="cielFp2i9ixUdL_3kRZ_-189">
          <mxGeometry y="120" width="180" height="30" as="geometry" />
        </mxCell>
        <mxCell id="cielFp2i9ixUdL_3kRZ_-200" value="" style="shape=partialRectangle;connectable=0;fillColor=none;top=0;left=0;bottom=0;right=0;editable=1;overflow=hidden;whiteSpace=wrap;html=1;" vertex="1" parent="cielFp2i9ixUdL_3kRZ_-199">
          <mxGeometry width="44.374540441176805" height="30" as="geometry">
            <mxRectangle width="44.374540441176805" height="30" as="alternateBounds" />
          </mxGeometry>
        </mxCell>
        <mxCell id="cielFp2i9ixUdL_3kRZ_-201" value="Duracion" style="shape=partialRectangle;connectable=0;fillColor=none;top=0;left=0;bottom=0;right=0;align=left;spacingLeft=6;overflow=hidden;whiteSpace=wrap;html=1;" vertex="1" parent="cielFp2i9ixUdL_3kRZ_-199">
          <mxGeometry x="44.374540441176805" width="135.6254595588232" height="30" as="geometry">
            <mxRectangle width="135.6254595588232" height="30" as="alternateBounds" />
          </mxGeometry>
        </mxCell>
        <mxCell id="cielFp2i9ixUdL_3kRZ_-202" value="AsistenciasFunFest" style="shape=table;startSize=30;container=1;collapsible=1;childLayout=tableLayout;fixedRows=1;rowLines=0;fontStyle=1;align=center;resizeLast=1;html=1;whiteSpace=wrap;" vertex="1" parent="1">
          <mxGeometry x="835" y="95" width="180" height="90" as="geometry" />
        </mxCell>
        <mxCell id="cielFp2i9ixUdL_3kRZ_-203" value="" style="shape=tableRow;horizontal=0;startSize=0;swimlaneHead=0;swimlaneBody=0;fillColor=none;collapsible=0;dropTarget=0;points=[[0,0.5],[1,0.5]];portConstraint=eastwest;top=0;left=0;right=0;bottom=0;html=1;" vertex="1" parent="cielFp2i9ixUdL_3kRZ_-202">
          <mxGeometry y="30" width="180" height="30" as="geometry" />
        </mxCell>
        <mxCell id="cielFp2i9ixUdL_3kRZ_-204" value="PK,FK1" style="shape=partialRectangle;connectable=0;fillColor=none;top=0;left=0;bottom=0;right=0;fontStyle=1;overflow=hidden;html=1;whiteSpace=wrap;" vertex="1" parent="cielFp2i9ixUdL_3kRZ_-203">
          <mxGeometry width="60" height="30" as="geometry">
            <mxRectangle width="60" height="30" as="alternateBounds" />
          </mxGeometry>
        </mxCell>
        <mxCell id="cielFp2i9ixUdL_3kRZ_-205" value="IdTurista" style="shape=partialRectangle;connectable=0;fillColor=none;top=0;left=0;bottom=0;right=0;align=left;spacingLeft=6;fontStyle=5;overflow=hidden;html=1;whiteSpace=wrap;" vertex="1" parent="cielFp2i9ixUdL_3kRZ_-203">
          <mxGeometry x="60" width="120" height="30" as="geometry">
            <mxRectangle width="120" height="30" as="alternateBounds" />
          </mxGeometry>
        </mxCell>
        <mxCell id="cielFp2i9ixUdL_3kRZ_-206" value="" style="shape=tableRow;horizontal=0;startSize=0;swimlaneHead=0;swimlaneBody=0;fillColor=none;collapsible=0;dropTarget=0;points=[[0,0.5],[1,0.5]];portConstraint=eastwest;top=0;left=0;right=0;bottom=1;html=1;" vertex="1" parent="cielFp2i9ixUdL_3kRZ_-202">
          <mxGeometry y="60" width="180" height="30" as="geometry" />
        </mxCell>
        <mxCell id="cielFp2i9ixUdL_3kRZ_-207" value="PK,FK2" style="shape=partialRectangle;connectable=0;fillColor=none;top=0;left=0;bottom=0;right=0;fontStyle=1;overflow=hidden;html=1;whiteSpace=wrap;" vertex="1" parent="cielFp2i9ixUdL_3kRZ_-206">
          <mxGeometry width="60" height="30" as="geometry">
            <mxRectangle width="60" height="30" as="alternateBounds" />
          </mxGeometry>
        </mxCell>
        <mxCell id="cielFp2i9ixUdL_3kRZ_-208" value="IdFunFest" style="shape=partialRectangle;connectable=0;fillColor=none;top=0;left=0;bottom=0;right=0;align=left;spacingLeft=6;fontStyle=5;overflow=hidden;html=1;whiteSpace=wrap;" vertex="1" parent="cielFp2i9ixUdL_3kRZ_-206">
          <mxGeometry x="60" width="120" height="30" as="geometry">
            <mxRectangle width="120" height="30" as="alternateBounds" />
          </mxGeometry>
        </mxCell>
        <mxCell id="cielFp2i9ixUdL_3kRZ_-215" style="edgeStyle=entityRelationEdgeStyle;rounded=0;orthogonalLoop=1;jettySize=auto;html=1;exitX=0;exitY=0.5;exitDx=0;exitDy=0;entryX=1;entryY=0.107;entryDx=0;entryDy=0;entryPerimeter=0;endArrow=ERmandOne;endFill=0;startArrow=ERoneToMany;startFill=0;" edge="1" parent="1" source="cielFp2i9ixUdL_3kRZ_-203" target="cielFp2i9ixUdL_3kRZ_-14">
          <mxGeometry relative="1" as="geometry" />
        </mxCell>
        <mxCell id="cielFp2i9ixUdL_3kRZ_-216" value="" style="edgeStyle=entityRelationEdgeStyle;fontSize=12;html=1;endArrow=ERoneToMany;startArrow=ERmandOne;rounded=0;" edge="1" parent="1" source="cielFp2i9ixUdL_3kRZ_-190" target="cielFp2i9ixUdL_3kRZ_-206">
          <mxGeometry width="100" height="100" relative="1" as="geometry">
            <mxPoint x="868" y="125" as="sourcePoint" />
            <mxPoint x="968" y="25" as="targetPoint" />
          </mxGeometry>
        </mxCell>
        <mxCell id="cielFp2i9ixUdL_3kRZ_-218" style="edgeStyle=entityRelationEdgeStyle;rounded=0;orthogonalLoop=1;jettySize=auto;html=1;startArrow=ERmandOne;startFill=0;endArrow=ERoneToMany;endFill=0;entryX=0.001;entryY=-0.2;entryDx=0;entryDy=0;entryPerimeter=0;" edge="1" parent="1" target="cielFp2i9ixUdL_3kRZ_-190">
          <mxGeometry relative="1" as="geometry">
            <mxPoint x="664" y="-242" as="sourcePoint" />
          </mxGeometry>
        </mxCell>
        <mxCell id="cielFp2i9ixUdL_3kRZ_-223" value="Consumo" style="shape=table;startSize=30;container=1;collapsible=1;childLayout=tableLayout;fixedRows=1;rowLines=0;fontStyle=1;align=center;resizeLast=1;html=1;" vertex="1" parent="1">
          <mxGeometry x="-66" y="-162" width="180" height="90" as="geometry" />
        </mxCell>
        <mxCell id="cielFp2i9ixUdL_3kRZ_-224" value="" style="shape=tableRow;horizontal=0;startSize=0;swimlaneHead=0;swimlaneBody=0;fillColor=none;collapsible=0;dropTarget=0;points=[[0,0.5],[1,0.5]];portConstraint=eastwest;top=0;left=0;right=0;bottom=1;" vertex="1" parent="cielFp2i9ixUdL_3kRZ_-223">
          <mxGeometry y="30" width="180" height="30" as="geometry" />
        </mxCell>
        <mxCell id="cielFp2i9ixUdL_3kRZ_-225" value="PK" style="shape=partialRectangle;connectable=0;fillColor=none;top=0;left=0;bottom=0;right=0;fontStyle=1;overflow=hidden;whiteSpace=wrap;html=1;" vertex="1" parent="cielFp2i9ixUdL_3kRZ_-224">
          <mxGeometry width="30" height="30" as="geometry">
            <mxRectangle width="30" height="30" as="alternateBounds" />
          </mxGeometry>
        </mxCell>
        <mxCell id="cielFp2i9ixUdL_3kRZ_-226" value="IdConsumo" style="shape=partialRectangle;connectable=0;fillColor=none;top=0;left=0;bottom=0;right=0;align=left;spacingLeft=6;fontStyle=5;overflow=hidden;whiteSpace=wrap;html=1;" vertex="1" parent="cielFp2i9ixUdL_3kRZ_-224">
          <mxGeometry x="30" width="150" height="30" as="geometry">
            <mxRectangle width="150" height="30" as="alternateBounds" />
          </mxGeometry>
        </mxCell>
        <mxCell id="cielFp2i9ixUdL_3kRZ_-227" value="" style="shape=tableRow;horizontal=0;startSize=0;swimlaneHead=0;swimlaneBody=0;fillColor=none;collapsible=0;dropTarget=0;points=[[0,0.5],[1,0.5]];portConstraint=eastwest;top=0;left=0;right=0;bottom=0;" vertex="1" parent="cielFp2i9ixUdL_3kRZ_-223">
          <mxGeometry y="60" width="180" height="30" as="geometry" />
        </mxCell>
        <mxCell id="cielFp2i9ixUdL_3kRZ_-228" value="nn" style="shape=partialRectangle;connectable=0;fillColor=none;top=0;left=0;bottom=0;right=0;editable=1;overflow=hidden;whiteSpace=wrap;html=1;" vertex="1" parent="cielFp2i9ixUdL_3kRZ_-227">
          <mxGeometry width="30" height="30" as="geometry">
            <mxRectangle width="30" height="30" as="alternateBounds" />
          </mxGeometry>
        </mxCell>
        <mxCell id="cielFp2i9ixUdL_3kRZ_-229" value="Fecha" style="shape=partialRectangle;connectable=0;fillColor=none;top=0;left=0;bottom=0;right=0;align=left;spacingLeft=6;overflow=hidden;whiteSpace=wrap;html=1;" vertex="1" parent="cielFp2i9ixUdL_3kRZ_-227">
          <mxGeometry x="30" width="150" height="30" as="geometry">
            <mxRectangle width="150" height="30" as="alternateBounds" />
          </mxGeometry>
        </mxCell>
        <mxCell id="cielFp2i9ixUdL_3kRZ_-236" value="ConsumosTuristas" style="shape=table;startSize=30;container=1;collapsible=1;childLayout=tableLayout;fixedRows=1;rowLines=0;fontStyle=1;align=center;resizeLast=1;html=1;whiteSpace=wrap;" vertex="1" parent="1">
          <mxGeometry x="209" y="-124" width="180" height="120" as="geometry" />
        </mxCell>
        <mxCell id="cielFp2i9ixUdL_3kRZ_-237" value="" style="shape=tableRow;horizontal=0;startSize=0;swimlaneHead=0;swimlaneBody=0;fillColor=none;collapsible=0;dropTarget=0;points=[[0,0.5],[1,0.5]];portConstraint=eastwest;top=0;left=0;right=0;bottom=0;html=1;" vertex="1" parent="cielFp2i9ixUdL_3kRZ_-236">
          <mxGeometry y="30" width="180" height="30" as="geometry" />
        </mxCell>
        <mxCell id="cielFp2i9ixUdL_3kRZ_-238" value="PK,FK1" style="shape=partialRectangle;connectable=0;fillColor=none;top=0;left=0;bottom=0;right=0;fontStyle=1;overflow=hidden;html=1;whiteSpace=wrap;" vertex="1" parent="cielFp2i9ixUdL_3kRZ_-237">
          <mxGeometry width="60" height="30" as="geometry">
            <mxRectangle width="60" height="30" as="alternateBounds" />
          </mxGeometry>
        </mxCell>
        <mxCell id="cielFp2i9ixUdL_3kRZ_-239" value="IdConsumo" style="shape=partialRectangle;connectable=0;fillColor=none;top=0;left=0;bottom=0;right=0;align=left;spacingLeft=6;fontStyle=5;overflow=hidden;html=1;whiteSpace=wrap;" vertex="1" parent="cielFp2i9ixUdL_3kRZ_-237">
          <mxGeometry x="60" width="120" height="30" as="geometry">
            <mxRectangle width="120" height="30" as="alternateBounds" />
          </mxGeometry>
        </mxCell>
        <mxCell id="cielFp2i9ixUdL_3kRZ_-252" value="" style="shape=tableRow;horizontal=0;startSize=0;swimlaneHead=0;swimlaneBody=0;fillColor=none;collapsible=0;dropTarget=0;points=[[0,0.5],[1,0.5]];portConstraint=eastwest;top=0;left=0;right=0;bottom=0;html=1;" vertex="1" parent="cielFp2i9ixUdL_3kRZ_-236">
          <mxGeometry y="60" width="180" height="30" as="geometry" />
        </mxCell>
        <mxCell id="cielFp2i9ixUdL_3kRZ_-253" value="PK,FK1" style="shape=partialRectangle;connectable=0;fillColor=none;top=0;left=0;bottom=0;right=0;fontStyle=1;overflow=hidden;html=1;whiteSpace=wrap;" vertex="1" parent="cielFp2i9ixUdL_3kRZ_-252">
          <mxGeometry width="60" height="30" as="geometry">
            <mxRectangle width="60" height="30" as="alternateBounds" />
          </mxGeometry>
        </mxCell>
        <mxCell id="cielFp2i9ixUdL_3kRZ_-254" value="IdPartido" style="shape=partialRectangle;connectable=0;fillColor=none;top=0;left=0;bottom=0;right=0;align=left;spacingLeft=6;fontStyle=5;overflow=hidden;html=1;whiteSpace=wrap;" vertex="1" parent="cielFp2i9ixUdL_3kRZ_-252">
          <mxGeometry x="60" width="120" height="30" as="geometry">
            <mxRectangle width="120" height="30" as="alternateBounds" />
          </mxGeometry>
        </mxCell>
        <mxCell id="cielFp2i9ixUdL_3kRZ_-240" value="" style="shape=tableRow;horizontal=0;startSize=0;swimlaneHead=0;swimlaneBody=0;fillColor=none;collapsible=0;dropTarget=0;points=[[0,0.5],[1,0.5]];portConstraint=eastwest;top=0;left=0;right=0;bottom=1;html=1;" vertex="1" parent="cielFp2i9ixUdL_3kRZ_-236">
          <mxGeometry y="90" width="180" height="30" as="geometry" />
        </mxCell>
        <mxCell id="cielFp2i9ixUdL_3kRZ_-241" value="PK,FK2" style="shape=partialRectangle;connectable=0;fillColor=none;top=0;left=0;bottom=0;right=0;fontStyle=1;overflow=hidden;html=1;whiteSpace=wrap;" vertex="1" parent="cielFp2i9ixUdL_3kRZ_-240">
          <mxGeometry width="60" height="30" as="geometry">
            <mxRectangle width="60" height="30" as="alternateBounds" />
          </mxGeometry>
        </mxCell>
        <mxCell id="cielFp2i9ixUdL_3kRZ_-242" value="IdTurista" style="shape=partialRectangle;connectable=0;fillColor=none;top=0;left=0;bottom=0;right=0;align=left;spacingLeft=6;fontStyle=5;overflow=hidden;html=1;whiteSpace=wrap;" vertex="1" parent="cielFp2i9ixUdL_3kRZ_-240">
          <mxGeometry x="60" width="120" height="30" as="geometry">
            <mxRectangle width="120" height="30" as="alternateBounds" />
          </mxGeometry>
        </mxCell>
        <mxCell id="cielFp2i9ixUdL_3kRZ_-255" style="edgeStyle=entityRelationEdgeStyle;rounded=0;orthogonalLoop=1;jettySize=auto;html=1;exitX=1;exitY=0.5;exitDx=0;exitDy=0;startArrow=ERmandOne;startFill=0;endArrow=ERoneToMany;endFill=0;" edge="1" parent="1" source="cielFp2i9ixUdL_3kRZ_-224" target="cielFp2i9ixUdL_3kRZ_-237">
          <mxGeometry relative="1" as="geometry" />
        </mxCell>
        <mxCell id="cielFp2i9ixUdL_3kRZ_-257" style="edgeStyle=orthogonalEdgeStyle;rounded=0;orthogonalLoop=1;jettySize=auto;html=1;exitX=1;exitY=0.5;exitDx=0;exitDy=0;entryX=-0.004;entryY=-0.06;entryDx=0;entryDy=0;entryPerimeter=0;endArrow=ERmandOne;endFill=0;startArrow=ERmandOne;startFill=0;" edge="1" parent="1" source="cielFp2i9ixUdL_3kRZ_-252" target="cielFp2i9ixUdL_3kRZ_-110">
          <mxGeometry relative="1" as="geometry" />
        </mxCell>
        <mxCell id="cielFp2i9ixUdL_3kRZ_-258" style="edgeStyle=entityRelationEdgeStyle;rounded=0;orthogonalLoop=1;jettySize=auto;html=1;exitX=1;exitY=0.5;exitDx=0;exitDy=0;entryX=-0.008;entryY=0.121;entryDx=0;entryDy=0;entryPerimeter=0;endArrow=ERmandOne;endFill=0;startArrow=ERoneToMany;startFill=0;" edge="1" parent="1" source="cielFp2i9ixUdL_3kRZ_-240" target="cielFp2i9ixUdL_3kRZ_-15">
          <mxGeometry relative="1" as="geometry" />
        </mxCell>
        <mxCell id="cielFp2i9ixUdL_3kRZ_-259" value="DetallesConsumo" style="shape=table;startSize=30;container=1;collapsible=1;childLayout=tableLayout;fixedRows=1;rowLines=0;fontStyle=1;align=center;resizeLast=1;html=1;" vertex="1" parent="1">
          <mxGeometry x="-361" y="-181" width="180" height="120" as="geometry" />
        </mxCell>
        <mxCell id="cielFp2i9ixUdL_3kRZ_-260" value="" style="shape=tableRow;horizontal=0;startSize=0;swimlaneHead=0;swimlaneBody=0;fillColor=none;collapsible=0;dropTarget=0;points=[[0,0.5],[1,0.5]];portConstraint=eastwest;top=0;left=0;right=0;bottom=1;" vertex="1" parent="cielFp2i9ixUdL_3kRZ_-259">
          <mxGeometry y="30" width="180" height="30" as="geometry" />
        </mxCell>
        <mxCell id="cielFp2i9ixUdL_3kRZ_-261" value="PK, FK" style="shape=partialRectangle;connectable=0;fillColor=none;top=0;left=0;bottom=0;right=0;fontStyle=1;overflow=hidden;whiteSpace=wrap;html=1;" vertex="1" parent="cielFp2i9ixUdL_3kRZ_-260">
          <mxGeometry width="44.282328886144285" height="30" as="geometry">
            <mxRectangle width="44.282328886144285" height="30" as="alternateBounds" />
          </mxGeometry>
        </mxCell>
        <mxCell id="cielFp2i9ixUdL_3kRZ_-262" value="IdConsumo" style="shape=partialRectangle;connectable=0;fillColor=none;top=0;left=0;bottom=0;right=0;align=left;spacingLeft=6;fontStyle=5;overflow=hidden;whiteSpace=wrap;html=1;" vertex="1" parent="cielFp2i9ixUdL_3kRZ_-260">
          <mxGeometry x="44.282328886144285" width="135.71767111385572" height="30" as="geometry">
            <mxRectangle width="135.71767111385572" height="30" as="alternateBounds" />
          </mxGeometry>
        </mxCell>
        <mxCell id="cielFp2i9ixUdL_3kRZ_-263" value="" style="shape=tableRow;horizontal=0;startSize=0;swimlaneHead=0;swimlaneBody=0;fillColor=none;collapsible=0;dropTarget=0;points=[[0,0.5],[1,0.5]];portConstraint=eastwest;top=0;left=0;right=0;bottom=0;" vertex="1" parent="cielFp2i9ixUdL_3kRZ_-259">
          <mxGeometry y="60" width="180" height="30" as="geometry" />
        </mxCell>
        <mxCell id="cielFp2i9ixUdL_3kRZ_-264" value="nn" style="shape=partialRectangle;connectable=0;fillColor=none;top=0;left=0;bottom=0;right=0;editable=1;overflow=hidden;whiteSpace=wrap;html=1;" vertex="1" parent="cielFp2i9ixUdL_3kRZ_-263">
          <mxGeometry width="44.282328886144285" height="30" as="geometry">
            <mxRectangle width="44.282328886144285" height="30" as="alternateBounds" />
          </mxGeometry>
        </mxCell>
        <mxCell id="cielFp2i9ixUdL_3kRZ_-265" value="Cantidad" style="shape=partialRectangle;connectable=0;fillColor=none;top=0;left=0;bottom=0;right=0;align=left;spacingLeft=6;overflow=hidden;whiteSpace=wrap;html=1;" vertex="1" parent="cielFp2i9ixUdL_3kRZ_-263">
          <mxGeometry x="44.282328886144285" width="135.71767111385572" height="30" as="geometry">
            <mxRectangle width="135.71767111385572" height="30" as="alternateBounds" />
          </mxGeometry>
        </mxCell>
        <mxCell id="cielFp2i9ixUdL_3kRZ_-266" value="" style="shape=tableRow;horizontal=0;startSize=0;swimlaneHead=0;swimlaneBody=0;fillColor=none;collapsible=0;dropTarget=0;points=[[0,0.5],[1,0.5]];portConstraint=eastwest;top=0;left=0;right=0;bottom=0;" vertex="1" parent="cielFp2i9ixUdL_3kRZ_-259">
          <mxGeometry y="90" width="180" height="30" as="geometry" />
        </mxCell>
        <mxCell id="cielFp2i9ixUdL_3kRZ_-267" value="nn" style="shape=partialRectangle;connectable=0;fillColor=none;top=0;left=0;bottom=0;right=0;editable=1;overflow=hidden;whiteSpace=wrap;html=1;" vertex="1" parent="cielFp2i9ixUdL_3kRZ_-266">
          <mxGeometry width="44.282328886144285" height="30" as="geometry">
            <mxRectangle width="44.282328886144285" height="30" as="alternateBounds" />
          </mxGeometry>
        </mxCell>
        <mxCell id="cielFp2i9ixUdL_3kRZ_-268" value="Producto" style="shape=partialRectangle;connectable=0;fillColor=none;top=0;left=0;bottom=0;right=0;align=left;spacingLeft=6;overflow=hidden;whiteSpace=wrap;html=1;" vertex="1" parent="cielFp2i9ixUdL_3kRZ_-266">
          <mxGeometry x="44.282328886144285" width="135.71767111385572" height="30" as="geometry">
            <mxRectangle width="135.71767111385572" height="30" as="alternateBounds" />
          </mxGeometry>
        </mxCell>
        <mxCell id="cielFp2i9ixUdL_3kRZ_-273" style="edgeStyle=entityRelationEdgeStyle;rounded=0;orthogonalLoop=1;jettySize=auto;html=1;exitX=1;exitY=0.5;exitDx=0;exitDy=0;startArrow=ERmandOne;startFill=0;endArrow=ERmandOne;endFill=0;" edge="1" parent="1" source="cielFp2i9ixUdL_3kRZ_-260" target="cielFp2i9ixUdL_3kRZ_-224">
          <mxGeometry relative="1" as="geometry" />
        </mxCell>
      </root>
    </mxGraphModel>
  </diagram>
</mxfile>
